<?xml version="1.0" encoding="UTF-8" standalone="no"?>
<svg
   xmlns:dc="http://purl.org/dc/elements/1.1/"
   xmlns:cc="http://creativecommons.org/ns#"
   xmlns:rdf="http://www.w3.org/1999/02/22-rdf-syntax-ns#"
   xmlns:svg="http://www.w3.org/2000/svg"
   xmlns="http://www.w3.org/2000/svg"
   xmlns:sodipodi="http://sodipodi.sourceforge.net/DTD/sodipodi-0.dtd"
   xmlns:inkscape="http://www.inkscape.org/namespaces/inkscape"
   width="30.714809mm"
   height="27.747875mm"
   viewBox="0 0 30.714809 27.747875"
   version="1.1"
   id="svg8"
   inkscape:version="1.0.1 (3bc2e813f5, 2020-09-07)"
   sodipodi:docname="logo.svg">
  <defs
     id="defs2">
    <marker
       style="overflow:visible"
       id="marker1270"
       refX="0"
       refY="0"
       orient="auto"
       inkscape:stockid="DotS"
       inkscape:isstock="true">
      <path
         transform="matrix(0.2,0,0,0.2,1.48,0.2)"
         style="fill:#ffffff;fill-opacity:1;fill-rule:evenodd;stroke:#ffffff;stroke-width:1pt;stroke-opacity:1"
         d="m -2.5,-1 c 0,2.76 -2.24,5 -5,5 -2.76,0 -5,-2.24 -5,-5 0,-2.76 2.24,-5 5,-5 2.76,0 5,2.24 5,5 z"
         id="path1268" />
    </marker>
    <marker
       style="overflow:visible"
       id="marker1169"
       refX="0"
       refY="0"
       orient="auto"
       inkscape:stockid="DotS"
       inkscape:isstock="true"
       inkscape:collect="always">
      <path
         transform="matrix(0.2,0,0,0.2,1.48,0.2)"
         style="fill:#fdfdfd;fill-opacity:1;fill-rule:evenodd;stroke:#fdfdfd;stroke-width:1pt;stroke-opacity:1"
         d="m -2.5,-1 c 0,2.76 -2.24,5 -5,5 -2.76,0 -5,-2.24 -5,-5 0,-2.76 2.24,-5 5,-5 2.76,0 5,2.24 5,5 z"
         id="path1167" />
    </marker>
    <marker
       style="overflow:visible"
       id="marker1137"
       refX="0"
       refY="0"
       orient="auto"
       inkscape:stockid="DotS"
       inkscape:isstock="true">
      <path
         transform="matrix(0.2,0,0,0.2,1.48,0.2)"
         style="fill:#fdfdfd;fill-opacity:1;fill-rule:evenodd;stroke:#fdfdfd;stroke-width:1pt;stroke-opacity:1"
         d="m -2.5,-1 c 0,2.76 -2.24,5 -5,5 -2.76,0 -5,-2.24 -5,-5 0,-2.76 2.24,-5 5,-5 2.76,0 5,2.24 5,5 z"
         id="path1135" />
    </marker>
    <marker
       style="overflow:visible"
       id="DotS"
       refX="0"
       refY="0"
       orient="auto"
       inkscape:stockid="DotS"
       inkscape:isstock="true"
       inkscape:collect="always">
      <path
         transform="matrix(0.2,0,0,0.2,1.48,0.2)"
         style="fill:#fdfdfd;fill-opacity:1;fill-rule:evenodd;stroke:#fdfdfd;stroke-width:1pt;stroke-opacity:1"
         d="m -2.5,-1 c 0,2.76 -2.24,5 -5,5 -2.76,0 -5,-2.24 -5,-5 0,-2.76 2.24,-5 5,-5 2.76,0 5,2.24 5,5 z"
         id="path906" />
    </marker>
  </defs>
  <sodipodi:namedview
     id="base"
     pagecolor="#ffffff"
     bordercolor="#666666"
     borderopacity="1.0"
     inkscape:pageopacity="0.0"
     inkscape:pageshadow="2"
     inkscape:zoom="22.4"
     inkscape:cx="22.51545"
     inkscape:cy="33.526885"
     inkscape:document-units="mm"
     inkscape:current-layer="layer1"
     inkscape:document-rotation="0"
     showgrid="false"
     inkscape:window-width="1920"
     inkscape:window-height="1027"
     inkscape:window-x="1912"
     inkscape:window-y="22"
     inkscape:window-maximized="1"
     showguides="true"
     inkscape:guide-bbox="true" />
  <metadata
     id="metadata5">
    <rdf:RDF>
      <cc:Work
         rdf:about="">
        <dc:format>image/svg+xml</dc:format>
        <dc:type
           rdf:resource="http://purl.org/dc/dcmitype/StillImage" />
        <dc:title></dc:title>
      </cc:Work>
    </rdf:RDF>
  </metadata>
  <g
     inkscape:label="Layer 1"
     inkscape:groupmode="layer"
     id="layer1"
     transform="translate(-94.342808,-40.824112)">
    <text
       xml:space="preserve"
       style="font-style:normal;font-weight:normal;font-size:10.5833px;line-height:1.25;font-family:sans-serif;letter-spacing:0px;word-spacing:0px;fill:#ffffff;fill-opacity:1;stroke:none;stroke-width:0.264583;stroke-opacity:1;"
       x="95.438988"
       y="58.586308"
       id="text835"><tspan
         sodipodi:role="line"
         id="tspan833"
         x="95.438988"
         y="58.586308"
         style="stroke-width:0.264583;stroke:none;stroke-opacity:1;fill:#ffffff;fill-opacity:1;">PHEM</tspan></text>
    <path
       style="fill:none;stroke:#ffffff;stroke-width:0.265;stroke-linecap:butt;stroke-linejoin:bevel;stroke-miterlimit:4;stroke-dasharray:none;stroke-opacity:1;marker-end:url(#DotS)"
       d="m 123.22024,59.861978 h -5.6224 l -0.64445,0.925669 -0.45003,-1.241483 -0.59303,1.222677 -0.55672,-1.213969 -0.49609,1.133929 -0.47248,-0.826823 H 99.360489 l -1.08668,-1.181176"
       id="path837"
       sodipodi:nodetypes="cccccccccc" />
    <path
       style="fill:none;stroke:#ffffff;stroke-width:0.264583px;stroke-linecap:butt;stroke-linejoin:miter;stroke-opacity:1;marker-start:url(#marker1137)"
       d="m 109.85036,51.147587 0.0173,7.512277 1.04576,1.249361"
       id="path1133"
       sodipodi:nodetypes="ccc" />
    <path
       style="fill:none;stroke:#ffffff;stroke-width:0.264583px;stroke-linecap:butt;stroke-linejoin:miter;stroke-opacity:1;marker-start:url(#marker1169)"
       d="M 95.757905,56.223958 95.249999,55.751489 V 54.081055"
       id="path1163"
       sodipodi:nodetypes="ccc" />
    <rect
       style="fill:none;stroke:#ffffff;stroke-width:0.18193;stroke-linejoin:miter;stroke-miterlimit:4;stroke-dasharray:none;stroke-opacity:1"
       id="rect1248"
       width="1.2082565"
       height="1.2082565"
       x="44.801056"
       y="129.45868"
       transform="rotate(-45)" />
    <path
       sodipodi:type="star"
       style="fill:none;stroke:#ffffff;stroke-width:0.264999;stroke-linejoin:miter;stroke-miterlimit:4;stroke-dasharray:none;stroke-opacity:1"
       id="path1250"
       sodipodi:sides="3"
       sodipodi:cx="94.613411"
       sodipodi:cy="51.265636"
       sodipodi:r1="2.0724163"
       sodipodi:r2="1.0362082"
       sodipodi:arg1="0"
       sodipodi:arg2="1.0471976"
       inkscape:flatsided="false"
       inkscape:rounded="0"
       inkscape:randomized="0"
       d="m 96.685827,51.265636 -1.554312,0.897383 -1.554312,0.897383 v -1.794766 -1.794765 l 1.554312,0.897383 z"
       transform="matrix(0,-0.45948936,0.45948936,0,71.71692,97.091439)"
       inkscape:transform-center-y="-0.23806352" />
    <rect
       style="fill:#ffffff;fill-opacity:1;stroke:#ffffff;stroke-width:0.121764;stroke-linejoin:miter;stroke-miterlimit:4;stroke-dasharray:none;stroke-opacity:1"
       id="rect1252"
       width="0.5526337"
       height="1.7960597"
       x="-53.126354"
       y="94.367233"
       transform="rotate(-90)" />
    <path
       style="fill:none;stroke:#ffffff;stroke-width:0.265;stroke-linecap:butt;stroke-linejoin:miter;stroke-miterlimit:4;stroke-dasharray:none;stroke-opacity:1;marker-end:url(#marker1270)"
       d="M 95.272933,52.66533 V 51.168525"
       id="path1266"
       sodipodi:nodetypes="cc" />
    <path
       id="path1326"
       style="fill:none;fill-opacity:1;stroke:#ffffff;stroke-width:0.194712;stroke-linejoin:miter;stroke-miterlimit:4;stroke-dasharray:none;stroke-opacity:1"
       d="m 122.61088,49.897306 c -2.0061,-5.396107 -7.15602,-8.975833 -12.91296,-8.975838 -5.75674,2.38e-4 -10.906377,3.579923 -12.912402,8.975838 m 0.600512,10.98071 c 2.337234,4.656663 7.10159,7.596344 12.31189,7.596616 5.2105,-6e-5 9.97513,-2.939772 12.31245,-7.596616"
       sodipodi:nodetypes="cccccc" />
  </g>
</svg>
